<?xml version="1.0" encoding="iso-8859-1"?>
<!-- Generator: Adobe Illustrator 19.0.0, SVG Export Plug-In . SVG Version: 6.00 Build 0)  -->
<svg version="1.1" id="Layer_1" xmlns="http://www.w3.org/2000/svg" xmlns:xlink="http://www.w3.org/1999/xlink" x="0px" y="0px"
	 viewBox="0 0 512 512" style="enable-background:new 0 0 512 512;" xml:space="preserve">
<path style="fill:#FFCE47;" d="M61.877,83.943c0,0,0,239.12,0,306.342C61.877,457.506,148.788,512,256,512
	s194.123-54.494,194.123-121.716c0-67.221,0-306.342,0-306.342H61.877V83.943z"/>
<path style="fill:#FF4181;" d="M256,0C148.789,0,61.877,37.582,61.877,83.943S148.789,167.885,256,167.885
	c5.724,0,11.387-0.114,16.986-0.324v232.002c0,10.722,8.692,19.412,19.412,19.412c10.722,0,19.412-8.691,19.412-19.412V164.357
	c13.632-1.767,26.634-4.164,38.825-7.112V290.37c0,10.722,8.692,19.412,19.412,19.412c10.722,0,19.412-8.691,19.412-19.412V144.896
	c37.357-15.299,60.664-36.949,60.664-60.953C450.123,37.582,363.212,0,256,0z"/>
<path style="fill:#FF80AB;" d="M256,122.993c-78.922,0-141.688-16.259-141.688-39.05c0-22.792,62.766-39.052,141.688-39.052
	S397.688,61.15,397.688,83.943C397.688,106.735,334.922,122.993,256,122.993z"/>
<g>
</g>
<g>
</g>
<g>
</g>
<g>
</g>
<g>
</g>
<g>
</g>
<g>
</g>
<g>
</g>
<g>
</g>
<g>
</g>
<g>
</g>
<g>
</g>
<g>
</g>
<g>
</g>
<g>
</g>
</svg>
