<?xml version="1.0" encoding="iso-8859-1"?>
<!-- Generator: Adobe Illustrator 19.0.0, SVG Export Plug-In . SVG Version: 6.00 Build 0)  -->
<svg version="1.1" id="Layer_1" xmlns="http://www.w3.org/2000/svg" xmlns:xlink="http://www.w3.org/1999/xlink" x="0px" y="0px"
	 viewBox="0 0 473.935 473.935" style="enable-background:new 0 0 473.935 473.935;" xml:space="preserve">
<circle style="fill:#FFC200;" cx="236.967" cy="236.967" r="236.967"/>
<path style="fill:#1FA85B;" d="M320.828,377.588c0,23.54-24.314,47.263-82.319,47.263c-57.99,0-81.07-23.723-81.07-47.263V182.042
	h163.389V377.588z"/>
<path style="fill:#35B167;" d="M238.509,424.85c-57.99,0-81.07-23.723-81.07-47.263V182.042h82.94L238.509,424.85z"/>
<path style="fill:#129949;" d="M320.828,377.588c0,23.54-24.314,47.263-82.319,47.263c-57.99,0-81.07-23.723-81.07-47.263
	c0,0,15.596,34.918,81.698,34.926C305.24,412.513,320.828,377.588,320.828,377.588z"/>
<path style="fill:#19A855;" d="M238.509,424.85c-57.99,0-81.07-23.723-81.07-47.263c0,0,15.596,34.918,81.698,34.926L238.509,424.85
	z"/>
<path style="fill:#8D8D8C;" d="M153.069,181.2c-3.113-13.152,21.83-10.065,62.26-10.065h47.614c38.559,0,67.244-2.357,62.252,10.062
	c-4.984,12.419-41.235,20.531-84.258,20.527C197.907,201.724,156.19,194.345,153.069,181.2z"/>
<path style="fill:#9D9E9F;" d="M153.069,181.2c-3.113-13.152,21.83-10.065,62.26-10.065l24.352,0.037l0.468,30.638
	C197.117,201.806,156.19,194.345,153.069,181.2z"/>
<path style="fill:#D0D1D1;" d="M262.494,121.152c0,12.55-10.174,22.713-22.72,22.713l0,0c-12.542,0-22.705-10.166-22.713-22.713
	l0.007-31.921c0-12.55,10.166-15.349,22.713-15.349l0,0c12.535,0,22.713,2.795,22.705,15.353L262.494,121.152z"/>
<path style="fill:#DDDDDC;" d="M239.774,143.864L239.774,143.864c-12.542,0-22.705-10.166-22.713-22.713l0.007-31.921
	c0-12.55,10.166-15.349,22.713-15.349l0,0L239.774,143.864z"/>
<path style="fill:#B4B4B5;" d="M162.3,173.297c11.072-17.751,42.776-55.513,55.581-55.513c0,0,12.453,4.804,22.058,4.808
	c9.601,0,20.456-4.804,20.456-4.804c12.804-0.004,39.128,33.571,55.584,55.509c0,0-37.826,12.98-76.239,12.98
	C201.319,186.27,162.3,173.297,162.3,173.297z"/>
<path style="fill:#C0C0C0;" d="M162.3,173.297c11.072-17.751,42.776-55.513,55.581-55.513c0,0,12.453,4.804,22.058,4.808
	l-0.198,63.685C201.319,186.27,162.3,173.297,162.3,173.297z"/>
<path style="fill:#575757;" d="M226.288,96.314c0,5.081-4.123,9.209-9.209,9.209V87.109
	C222.169,87.109,226.288,91.236,226.288,96.314z"/>
<path style="fill:#AAAAAA;" d="M220.459,96.317c0,1.863-1.512,3.371-3.375,3.371v-6.75
	C218.954,92.942,220.459,94.454,220.459,96.317z"/>
<g>
	<circle style="fill:#52BA73;" cx="136.239" cy="90.031" r="10.204"/>
	<circle style="fill:#52BA73;" cx="141.664" cy="114.521" r="10.208"/>
	<path style="fill:#52BA73;" d="M170.936,109.084c0,7.633-6.196,13.826-13.833,13.826c-7.644,0-13.833-6.193-13.833-13.826
		c0-7.648,6.189-13.837,13.833-13.837C164.74,95.247,170.936,101.436,170.936,109.084z"/>
	<ellipse style="fill:#52BA73;" cx="148.923" cy="84.815" rx="12.471" ry="9.983"/>
	<circle style="fill:#52BA73;" cx="156.631" cy="95.023" r="12.471"/>
	<circle style="fill:#52BA73;" cx="133.065" cy="103.636" r="13.833"/>
	<path style="fill:#52BA73;" d="M201.742,94.256c0,0,3.222,1.545,3.091,3.349c-0.254,3.341-2.578,4.112-2.578,4.112
		s-24.636,0.726-34.664,5.242l-1.171-15.708C166.42,91.251,190.416,96.314,201.742,94.256z"/>
</g>
<g>
</g>
<g>
</g>
<g>
</g>
<g>
</g>
<g>
</g>
<g>
</g>
<g>
</g>
<g>
</g>
<g>
</g>
<g>
</g>
<g>
</g>
<g>
</g>
<g>
</g>
<g>
</g>
<g>
</g>
</svg>
